<!--
<svg width="28" height="28" viewBox="0 0 28 28" fill="none" xmlns="http://www.w3.org/2000/svg">
<rect width="28" height="28" rx="14" fill="url(#paint0_linear_1579_18136)"/>
<path fill-rule="evenodd" clip-rule="evenodd" d="M16.5664 7.6671C16.987 7.6671 17.407 7.72643 17.8064 7.86043C20.267 8.66043 21.1537 11.3604 20.413 13.7204C19.993 14.9264 19.3064 16.0271 18.407 16.9264C17.1197 18.1731 15.707 19.2798 14.1864 20.2331L14.0197 20.3338L13.8464 20.2264C12.3204 19.2798 10.8997 18.1731 9.60035 16.9198C8.70702 16.0204 8.01969 14.9264 7.59302 13.7204C6.83969 11.3604 7.72635 8.66043 10.2137 7.84643C10.407 7.77977 10.6064 7.7331 10.8064 7.7071H10.8864C11.0737 7.67977 11.2597 7.6671 11.4464 7.6671H11.5197C11.9397 7.67977 12.3464 7.7531 12.7404 7.8871H12.7797C12.8064 7.89977 12.8264 7.91377 12.8397 7.92643C12.987 7.97377 13.1264 8.0271 13.2597 8.10043L13.513 8.21377C13.5742 8.24641 13.6429 8.2963 13.7023 8.33941C13.7399 8.36673 13.7738 8.39133 13.7997 8.4071C13.8106 8.41352 13.8216 8.41997 13.8328 8.42648C13.8899 8.45985 13.9495 8.49461 13.9997 8.5331C14.7404 7.9671 15.6397 7.66043 16.5664 7.6671ZM18.3397 12.4671C18.613 12.4598 18.8464 12.2404 18.8664 11.9598V11.8804C18.8864 10.9464 18.3204 10.1004 17.4597 9.77377C17.1864 9.67977 16.8864 9.8271 16.7864 10.1071C16.693 10.3871 16.8397 10.6938 17.1197 10.7931C17.547 10.9531 17.833 11.3738 17.833 11.8398V11.8604C17.8204 12.0131 17.8664 12.1604 17.9597 12.2738C18.053 12.3871 18.193 12.4531 18.3397 12.4671Z" fill="white"/>
<defs>
<linearGradient id="paint0_linear_1579_18136" x1="28" y1="28" x2="-5.31749" y2="18.3399" gradientUnits="userSpaceOnUse">
<stop stop-color="#101010"/>
<stop offset="1" stop-color="#313130"/>
</linearGradient>
</defs>
</svg>
-->

<svg width="20" height="20" viewBox="0 0 20 20" fill="none" xmlns="http://www.w3.org/2000/svg">
    <path fill-rule="evenodd" clip-rule="evenodd" d="M12.1213 9.23312H14.8891C15.3088 9.23312 15.6386 8.88615 15.6386 8.46774C15.6386 8.03912 15.3088 7.70236 14.8891 7.70236H12.1213C11.7016 7.70236 11.3719 8.03912 11.3719 8.46774C11.3719 8.88615 11.7016 9.23312 12.1213 9.23312ZM18.1766 3.92749C18.7861 3.92749 19.1858 4.1418 19.5855 4.61123C19.9852 5.08067 20.0551 5.7542 19.9652 6.36549L19.0159 13.06C18.8361 14.3469 17.7569 15.2949 16.4879 15.2949H5.58639C4.25742 15.2949 3.15828 14.255 3.04837 12.908L2.12908 1.7834L0.620259 1.51807C0.22057 1.44664 -0.0592117 1.04864 0.0107338 0.640433C0.0806793 0.223045 0.470376 -0.0535127 0.880056 0.0087383L3.2632 0.375101C3.60293 0.437352 3.85274 0.722074 3.88272 1.06905L4.07257 3.35499C4.10254 3.68257 4.36234 3.92749 4.68209 3.92749H18.1766ZM5.42631 16.9079C4.58697 16.9079 3.9075 17.6018 3.9075 18.459C3.9075 19.3061 4.58697 20 5.42631 20C6.25567 20 6.93514 19.3061 6.93514 18.459C6.93514 17.6018 6.25567 16.9079 5.42631 16.9079ZM16.6676 16.9079C15.8282 16.9079 15.1487 17.6018 15.1487 18.459C15.1487 19.3061 15.8282 20 16.6676 20C17.4969 20 18.1764 19.3061 18.1764 18.459C18.1764 17.6018 17.4969 16.9079 16.6676 16.9079Z" fill="white"/>
</svg>
